<?xml version="1.0" standalone="no"?>
<svg xmlns="http://www.w3.org/2000/svg" viewBox="0 0 161.136 29" width="161.136" height="29"><g fill="#ff6300" color="#ff6300" transform="translate(0, 0) scale(0.28765)"><svg width="92.638" height="100.817" x="0.0" y="0.0" viewBox="0 0 92.638 100.817"><path d="M46.769,20.261c0.547,0,1.095,0.181,1.513,0.542l12.837,11.105c0.306,0.264,0.59,0.39,0.827,0.39  c0.413,0,0.686-0.381,0.686-1.082v-2.679c0-1.104,0.896-2,2-2h4.995c1.104,0,2,0.896,2,2v10.46c0,1.104,0.677,2.586,1.513,3.309  l6.235,5.394c0.836,0.723,0.617,1.309-0.487,1.309h-5.261c-1.104,0-2,0.793-2,1.771s0,1.771,0,1.771v26.289c0,1.104-0.896,2-2,2  H23.912c-1.104,0-2-0.896-2-2v-27.83c0-1.104-0.896-2-2-2h-5.261c-1.104,0-1.323-0.586-0.487-1.309l31.093-26.897  C45.674,20.441,46.222,20.261,46.769,20.261 M46.769,17.261c-1.291,0-2.525,0.452-3.475,1.272L12.201,45.432  c-2.044,1.767-1.537,3.692-1.333,4.24c0.204,0.549,1.08,2.337,3.783,2.337h4.261v26.83c0,2.757,2.243,5,5,5h45.715  c2.757,0,5-2.243,5-5V52.55v-0.541h4.261c2.703,0,3.579-1.788,3.783-2.337c0.204-0.548,0.711-2.474-1.334-4.241l-6.234-5.394  c-0.19-0.18-0.464-0.779-0.476-1.046V28.537c0-2.757-2.243-5-5-5h-4.995c-2.182,0-4.042,1.405-4.723,3.357l-9.664-8.36  C49.294,17.713,48.06,17.261,46.769,17.261L46.769,17.261z"></path></svg></g><line x1="38.648" y1="1" x2="38.648" y2="28" stroke="#7e6d6d" stroke-linecap="round"></line><path fill="#7e6d6d" fill-rule="nonzero" d="M4.98 16.93L4.98 16.93Q1.68 16.93 0 15.73L0 15.73Q0.02 15.38 0.07 14.93L0.07 14.93L0.18 14.09Q0.27 13.25 0.29 13.05Q0.32 12.84 0.33 12.83Q0.34 12.81 0.52 13.01Q0.69 13.22 1.18 13.51Q1.68 13.80 2.32 14.03L2.32 14.03Q3.71 14.51 5.23 14.51L5.23 14.51Q7.25 14.51 7.25 13.16L7.25 13.16Q7.25 12.73 6.87 12.52L6.87 12.52Q6.18 12.16 4.83 11.98Q3.49 11.80 2.64 11.45Q1.78 11.10 1.24 10.61L1.24 10.61Q0.25 9.68 0.25 8.18L0.25 8.18Q0.25 6.35 1.65 5.31L1.65 5.31Q3.05 4.28 5.51 4.28L5.51 4.28Q7.95 4.28 9.67 5.66L9.67 5.66Q9.59 5.96 9.49 6.25L9.49 6.25Q9.22 7.02 9.09 7.36L9.09 7.36L8.82 8.05Q8.80 8.14 8.79 8.14L8.79 8.14Q8.77 8.14 8.60 7.90L8.60 7.90Q7.86 7.04 6.30 6.77L6.30 6.77Q5.82 6.68 5.32 6.68L5.32 6.68Q3.19 6.68 3.19 7.97L3.19 7.97Q3.19 8.41 3.63 8.65L3.63 8.65Q4.46 9.09 5.91 9.30Q7.36 9.52 8.11 9.87Q8.86 10.23 9.32 10.73L9.32 10.73Q10.16 11.65 10.16 13.16L10.16 13.16Q10.16 14.81 8.84 15.84L8.84 15.84Q7.45 16.93 4.98 16.93ZM16.04 8.52L16.04 13.37Q16.04 16.01 16.14 16.76L16.14 16.76L13.08 16.76L13.08 4.51L16.04 4.51L16.04 5.57Q17.65 4.28 19.34 4.28L19.34 4.28Q21.33 4.28 22.23 6L22.23 6Q23.13 5.07 23.73 4.78L23.73 4.78Q24.73 4.28 25.73 4.28Q26.73 4.28 27.43 4.62Q28.14 4.96 28.59 5.58L28.59 5.58Q29.52 6.83 29.52 9.02L29.52 9.02L29.52 13.69Q29.52 15.67 29.58 16.07Q29.64 16.46 29.74 16.58Q29.84 16.70 29.91 16.79L29.91 16.79L29.88 16.84Q28.95 16.76 28.50 16.76L28.50 16.76L27.62 16.76Q27.19 16.76 26.55 16.79L26.55 16.79L26.55 10.45Q26.55 7.71 25.71 7.20L25.71 7.20Q25.43 7.03 25.05 7.03Q24.67 7.03 24.38 7.12Q24.08 7.21 23.82 7.41L23.82 7.41Q23.39 7.72 22.84 8.65L22.84 8.65Q22.85 8.74 22.85 8.84Q22.85 8.93 22.85 11.93Q22.85 14.93 22.99 16.76L22.99 16.76Q22.00 16.76 21.30 16.76Q20.60 16.76 19.97 16.79L19.97 16.79L19.97 10.44Q19.97 8.53 19.74 7.96Q19.51 7.38 19.25 7.21Q19.00 7.03 18.62 7.03L18.62 7.03Q17.07 7.03 16.04 8.52L16.04 8.52ZM41.00 16.03L41.00 16.03Q39.34 16.93 37.99 16.93Q36.64 16.93 35.68 16.68Q34.72 16.43 34.05 15.94L34.05 15.94Q32.70 14.94 32.70 13.05L32.70 13.05Q32.70 11.37 34.36 10.24L34.36 10.24Q36.16 9.02 39.26 9.02L39.26 9.02L39.73 9.04Q39.87 9.05 40.04 9.05Q40.22 9.06 40.36 9.08L40.36 9.08Q40.27 7.21 38.74 6.89L38.74 6.89Q38.24 6.79 37.67 6.79Q37.10 6.79 36.56 6.88Q36.01 6.98 35.50 7.15L35.50 7.15Q34.36 7.51 33.87 7.98L33.87 7.98L33.83 7.96L33.48 5.37Q35.55 4.28 38.02 4.28L38.02 4.28Q41.84 4.28 42.90 7.03L42.90 7.03Q43.24 7.91 43.24 9.01L43.24 9.01L43.24 13.25Q43.24 14.61 44.20 15.11L44.20 15.11L42.08 17.05Q41.41 16.70 41.00 16.03ZM40.37 13.64L40.37 11.19Q40.05 11.13 39.71 11.13L39.71 11.13L39.25 11.13Q36.66 11.13 35.95 12.28L35.95 12.28Q35.74 12.62 35.74 13.00Q35.74 13.37 35.88 13.66Q36.01 13.95 36.33 14.13L36.33 14.13Q36.94 14.48 38.14 14.48Q39.34 14.48 40.38 13.91L40.38 13.91Q40.37 13.78 40.37 13.64L40.37 13.64ZM49.66 8.23L49.66 15.45Q49.66 16.45 49.71 16.76L49.71 16.76L46.79 16.76L46.79 4.51L49.66 4.51L49.66 5.41Q50.66 4.28 51.76 4.28Q52.85 4.28 53.48 4.55L53.48 4.55L53.27 7.70L53.23 7.73Q52.82 7.01 51.53 7.01L51.53 7.01Q51.04 7.01 50.53 7.34Q50.02 7.68 49.66 8.23L49.66 8.23ZM60.35 14.18L60.35 14.18Q61.86 14.18 62.43 13.39L62.43 13.39L62.52 13.39L62.55 16.11Q61.98 16.69 60.42 16.88L60.42 16.88Q60 16.93 59.37 16.93Q58.75 16.93 58.01 16.70Q57.28 16.46 56.77 15.94L56.77 15.94Q55.70 14.85 55.70 12.53L55.70 12.53L55.70 7.21L53.93 7.21Q53.92 6.87 53.92 6.52L53.92 6.52L53.92 4.71Q53.92 4.51 53.93 4.51L53.93 4.51L55.70 4.51L55.70 1.17L58.57 1.17L58.57 4.51L61.79 4.51L61.79 7.21L58.57 7.21L58.57 11.99Q58.57 13.83 59.59 14.09L59.59 14.09Q59.92 14.18 60.35 14.18ZM71.57 10.90L66.75 10.90Q65.86 10.90 65.30 10.96L65.30 10.96L65.33 8.06Q65.60 8.13 66.88 8.13L66.88 8.13L71.44 8.13Q72.73 8.13 72.98 8.06L72.98 8.06L73.02 10.96Q72.46 10.90 71.57 10.90L71.57 10.90ZM79.89 13.96L79.89 15.21Q79.89 16.22 79.97 16.76L79.97 16.76L77.02 16.76L77.02 0L79.89 0L79.89 10.27L85.24 4.51L88.72 4.51L84.11 9.38L86.74 12.97Q87.60 14.33 88.03 14.96L88.03 14.96L88.80 16.05Q89.16 16.51 89.39 16.76L89.39 16.76L87.54 16.76Q86.51 16.76 85.77 16.93L85.77 16.93L82.11 11.59L79.89 13.96ZM89.93 10.70L89.93 10.70Q89.93 9.41 90.37 8.23Q90.81 7.05 91.63 6.18L91.63 6.18Q93.42 4.28 96.28 4.28L96.28 4.28Q99.13 4.28 100.80 6.07L100.80 6.07Q102.41 7.78 102.41 10.51L102.41 10.51Q102.41 13.24 100.76 15.04L100.76 15.04Q99.01 16.93 96.13 16.93L96.13 16.93Q93.15 16.93 91.46 15.07L91.46 15.07Q89.93 13.37 89.93 10.70ZM92.78 10.63L92.78 10.63Q92.78 11.37 93.02 12.06Q93.27 12.75 93.73 13.24L93.73 13.24Q94.70 14.31 96.28 14.31L96.28 14.31Q97.75 14.31 98.59 13.27L98.59 13.27Q99.41 12.26 99.41 10.64L99.41 10.64Q99.41 9 98.57 7.99L98.57 7.99Q97.66 6.91 96.09 6.91L96.09 6.91Q94.50 6.91 93.60 8.06L93.60 8.06Q92.78 9.12 92.78 10.63ZM110.29 14.18L110.29 14.18Q111.80 14.18 112.36 13.39L112.36 13.39L112.45 13.39L112.49 16.11Q111.91 16.69 110.36 16.88L110.36 16.88Q109.93 16.93 109.31 16.93Q108.68 16.93 107.95 16.70Q107.21 16.46 106.70 15.94L106.70 15.94Q105.63 14.85 105.63 12.53L105.63 12.53L105.63 7.21L103.86 7.21Q103.85 6.87 103.85 6.52L103.85 6.52L103.85 4.71Q103.85 4.51 103.86 4.51L103.86 4.51L105.63 4.51L105.63 1.17L108.50 1.17L108.50 4.51L111.73 4.51L111.73 7.21L108.50 7.21L108.50 11.99Q108.50 13.83 109.52 14.09L109.52 14.09Q109.85 14.18 110.29 14.18Z" transform="translate(48.648, 5.975)"></path></svg>